HIERARCHY
ROOT Hips
{
     OFFSET 1.88212 96.90440 -13.34250
     CHANNELS 6 Xposition Yposition Zposition Zrotation Xrotation Yrotation
     JOINT Spine
     {
          OFFSET 0.00000 11.89050 0.00000
          CHANNELS 3 Zrotation Xrotation Yrotation
          JOINT Spine1
          {
               OFFSET -0.00000 25.65740 0.12766
               CHANNELS 3 Zrotation Xrotation Yrotation
               JOINT HEad
               {
                    OFFSET 0.00000 8.73416 0.01134
                    CHANNELS 3 Zrotation Xrotation Yrotation
                    End Site
                    {
                         OFFSET -0.29000 12.77420 2.51395
                    }
               }
               JOINT LeftShoulder1
               {
                    OFFSET 8.99000 -0.36225 -0.22000
                    CHANNELS 3 Zrotation Xrotation Yrotation
                    JOINT LeftArm
                    {
                         OFFSET 10.28270 -0.00338 0.32212
                         CHANNELS 3 Zrotation Xrotation Yrotation
                         JOINT LeftForeArm
                         {
                              OFFSET 32.76690 0.09914 -1.42434
                              CHANNELS 3 Zrotation Xrotation Yrotation
                              JOINT LeftHand
                              {
                                   OFFSET 27.56430 0.08536 1.02216
                                   CHANNELS 3 Zrotation Xrotation Yrotation
                                   End Site
                                   {
                                        OFFSET 16.74430 -0.60000 1.50291
                                   }
                              }
                         }
                    }
               }
               JOINT RightShoulder
               {
                    OFFSET -8.99000 -0.36225 -0.22000
                    CHANNELS 3 Zrotation Xrotation Yrotation
                    JOINT RightArm
                    {
                         OFFSET -10.28270 -0.00338 0.32212
                         CHANNELS 3 Zrotation Xrotation Yrotation
                         JOINT RightForeArm
                         {
                              OFFSET -32.89710 0.09914 -1.42434
                              CHANNELS 3 Zrotation Xrotation Yrotation
                              JOINT RightHand
                              {
                                   OFFSET -27.49210 0.08536 1.02216
                                   CHANNELS 3 Zrotation Xrotation Yrotation
                                   End Site
                                   {
                                        OFFSET -16.63120 -0.60000 1.50291
                                   }
                              }
                         }
                    }
               }
          }
     }
     JOINT LeftUpLeg
     {
          OFFSET 8.94580 -8.66707 0.10165
          CHANNELS 3 Zrotation Xrotation Yrotation
          JOINT LeftLeg
          {
               OFFSET 0.00000 -44.42270 1.37270
               CHANNELS 3 Zrotation Xrotation Yrotation
               JOINT LeftFoot
               {
                    OFFSET -0.25355 -42.09240 -1.46059
                    CHANNELS 3 Zrotation Xrotation Yrotation
                    JOINT LeftToes
                    {
                         OFFSET -0.04000 -4.41509 8.49910
                         CHANNELS 3 Zrotation Xrotation Yrotation
                         End Site
                         {
                              OFFSET 0.08000 -0.04745 9.77979
                         }
                    }
               }
          }
     }
     JOINT RightUpLeg
     {
          OFFSET -8.94580 -8.66707 0.10165
          CHANNELS 3 Zrotation Xrotation Yrotation
          JOINT RightLeg
          {
               OFFSET 0.00000 -44.42270 1.37270
               CHANNELS 3 Zrotation Xrotation Yrotation
               JOINT RightFoot
               {
                    OFFSET 0.25355 -42.09240 -1.46059
                    CHANNELS 3 Zrotation Xrotation Yrotation
                    JOINT RightToes
                    {
                         OFFSET 0.04000 -4.41509 8.49910
                         CHANNELS 3 Zrotation Xrotation Yrotation
                         End Site
                         {
                              OFFSET -0.08000 -0.13745 9.77979
                         }
                    }
               }
          }
     }
}
MOTION
Frames: 21
Frame Time: 0.01667
66.45451 86.59995 -264.36890 0.21481 5.40654 169.10060 15.63815 15.13443 3.70142 0.00600 0.00816 0.00039 -32.21581 22.45832 37.42037 -1.03794 2.82091 1.64631 34.64806 -77.59074 56.77662 -47.28423 47.67810 -100.53669 5.15353 11.71707 -4.43637 19.57433 4.73261 11.81391 41.75661 -20.04714 66.43929 30.43678 21.94818 83.92135 5.02721 13.77179 14.02944 23.83481 -27.21061 31.11141 10.63089 21.49146 -31.42112 11.18860 -0.00615 -0.03775 -26.41179 -0.78389 -1.52246 -12.21953 15.55006 9.10378 -5.52678 20.64628 2.51960 9.20618 -0.13589 0.01462 -9.13698 -48.63206 -13.09912 
67.93631 86.28152 -262.54276 0.20750 4.82654 169.11737 14.82407 16.03796 4.88999 0.00573 0.00515 -0.00100 -32.08108 20.30553 37.30008 -0.63941 2.02802 0.88381 36.84266 -78.48551 60.50761 -52.38230 48.24563 -96.65952 3.97491 14.45222 -5.21282 19.71539 3.65149 11.94709 42.74416 -20.31034 67.76247 31.35222 20.84328 82.18039 5.42256 14.43173 14.09641 23.83245 -28.16093 31.75982 11.59786 19.79326 -32.04239 13.36737 -0.00316 -0.02878 -28.42152 3.55770 -2.02622 -12.96070 17.43111 10.33451 -0.95155 17.04959 -1.98489 5.85168 -0.17979 0.04879 -6.70532 -46.36411 -10.97545 
69.35638 86.08691 -260.80960 0.22970 4.40825 169.20790 14.04956 16.79395 5.84390 0.00282 0.00331 -0.00259 -31.99304 18.50574 37.25318 -0.29968 1.38614 0.21954 38.48478 -79.52146 63.39388 -55.24687 48.93548 -94.46674 3.51573 15.49808 -5.28533 19.82471 2.75869 11.85572 43.83187 -20.36120 69.10271 31.51265 19.13004 80.32574 6.79152 14.08273 14.92275 23.68443 -28.95190 30.87028 12.26791 18.73485 -31.23177 15.49778 -0.00260 -0.02007 -33.57681 3.88305 0.27897 -13.88918 18.91842 11.41077 2.28163 12.11492 -4.70797 5.92081 -0.11937 0.02157 -8.20389 -45.28389 -7.69216 
70.66170 86.04656 -259.24152 0.30316 4.12854 169.33060 13.33534 17.40527 6.61114 0.00137 0.00188 -0.00310 -31.93812 17.08294 37.27098 -0.02069 0.84427 -0.30779 38.94603 -80.66788 64.75512 -56.66372 49.61808 -93.28963 3.17733 16.03265 -5.21687 19.99209 2.03570 11.68194 44.81079 -20.28325 70.18146 31.20721 17.42425 78.55535 8.16191 14.22068 15.49501 23.64729 -29.41649 29.84282 12.58579 19.57665 -28.97990 18.60776 -0.03847 0.02106 -36.19308 4.01337 -0.12408 -14.69511 19.00468 11.83947 5.21491 9.78746 -5.11153 3.84136 -0.11160 0.05307 -8.15778 -43.60253 -7.38904 
71.81882 86.21364 -257.87167 0.42233 3.96634 169.44322 12.68439 17.88995 7.24116 0.00298 0.00386 -0.00184 -31.93306 16.04028 37.34570 0.19604 0.41425 -0.76936 38.42095 -81.82276 64.81030 -57.07126 50.16137 -92.82986 3.20486 16.09326 -4.91593 20.07841 1.43080 11.59893 45.60825 -20.40258 70.82881 32.40051 19.67302 79.23656 6.29882 14.21456 13.58228 23.78843 -29.72058 28.80975 12.33110 21.47266 -25.37244 22.31825 -0.06662 0.06774 -39.74691 7.80231 14.25938 -15.16474 18.00837 11.63452 7.69286 9.53032 -3.85517 4.66955 -0.13547 0.01900 -10.96481 -42.23740 -7.95354 
72.81538 86.54155 -256.76608 0.55356 3.92675 169.54283 12.07520 18.25514 7.74059 0.00363 0.00304 -0.00239 -32.00304 15.39194 37.48618 0.34885 0.09436 -1.11518 36.83322 -82.93707 63.53588 -56.86900 50.55716 -92.80608 3.21879 15.93178 -4.57045 20.09739 0.97592 11.39456 46.25626 -20.46385 71.13695 32.85972 20.26678 79.04520 5.80468 14.41513 12.73412 24.10278 -29.96053 27.83075 11.38680 24.05671 -20.85739 26.43065 -0.08220 0.11000 -40.92193 6.22799 3.57728 -15.59242 16.96006 11.40461 9.93720 11.47556 -2.39304 2.26302 -0.00338 -0.04030 -9.97888 -42.26761 -9.23819 
73.67618 86.94188 -255.90958 0.68250 3.98227 169.62332 11.24165 18.13861 8.03297 0.00727 0.00385 -0.00230 -31.94091 15.25992 38.01952 0.78515 0.16086 -1.21115 34.34780 -83.90680 61.20194 -56.28238 50.81830 -93.11543 3.38304 15.70175 -4.25906 20.36533 0.96100 10.92577 46.79490 -20.23651 71.22108 32.91584 20.28951 78.82255 6.09548 14.29857 12.84518 24.47391 -30.05145 26.89380 10.30800 25.25214 -16.85794 29.69590 -0.04775 0.05832 -43.37617 6.73451 4.18573 -16.07694 16.09845 11.18769 11.55556 11.25118 -1.03160 7.59638 -0.19535 -0.03339 -15.72105 -40.20469 -9.36951 
74.43498 87.35224 -255.24097 0.79873 4.05904 169.69516 10.51021 17.90136 8.23592 0.00863 0.00551 -0.00071 -31.99819 15.39553 38.55949 1.11934 0.29370 -1.19378 31.29868 -84.80793 58.14745 -55.56589 50.98792 -93.54836 3.48571 15.29522 -3.82946 20.26906 1.01146 10.61739 47.25118 -20.42470 71.03989 33.34022 24.22205 80.35658 2.81497 13.63073 10.88918 24.78488 -29.94893 25.95310 9.18143 25.51790 -13.47789 32.28648 -0.03048 0.02411 -45.47301 7.15591 -0.36135 -16.51738 15.42038 10.93332 13.18439 11.82052 -0.12062 3.99797 0.00526 -0.01809 -12.27726 -39.26752 -8.55340 
75.11176 87.74403 -254.69431 0.89972 4.12925 169.77008 9.85837 17.54247 8.36037 0.00750 0.00603 -0.00035 -32.15127 15.73115 39.10142 1.31901 0.51684 -1.10620 28.77849 -85.65661 55.42435 -54.80828 51.07156 -94.00848 3.64940 15.04376 -3.45106 19.97770 1.16913 10.29501 47.58485 -20.76898 70.82189 33.61686 25.58504 81.04797 1.78359 13.11833 10.20913 24.94395 -29.60496 24.95842 8.05700 25.12477 -10.72012 34.30074 -0.01551 0.00657 -47.97237 8.19439 -1.59517 -16.88371 14.84486 10.61928 14.70967 12.76160 0.51846 5.11920 -0.02581 -0.00486 0.02784 -27.18528 7.13753 
75.72842 88.09863 -254.24443 0.98920 4.17620 169.85120 9.26532 17.05832 8.42129 0.00578 0.00488 -0.00056 -32.37941 16.24258 39.64021 1.38720 0.74161 -0.95670 -26.22909 -90.00000 0.00000 -54.08173 51.12169 -94.42273 3.78018 14.52692 -3.06844 19.75142 1.38998 9.95677 47.60867 -21.08964 70.50695 33.80019 25.71501 81.43806 1.98058 13.02145 9.77430 25.05681 -29.08202 23.95002 6.33942 25.42603 -10.06780 36.54386 0.02946 0.00902 -50.16194 8.16742 -2.10669 -17.26201 14.29612 10.24837 15.80280 13.95267 1.07214 4.83592 -0.02169 -0.00678 -5.96871 -33.48441 1.15932 
76.30674 88.46117 -253.87137 1.06570 4.18885 169.93169 8.71489 16.47668 8.43694 0.00532 0.00591 -0.00009 -32.66196 16.85670 40.15781 1.43631 1.05710 -0.79027 -25.87552 -90.00000 0.00000 -53.44531 51.14769 -94.71137 3.95837 14.15437 -2.63134 19.15834 1.67165 9.58100 47.81962 -21.44695 70.28788 33.97944 25.04035 81.67518 2.82603 12.69649 9.70819 25.11566 -28.39104 22.92864 4.93644 24.93203 -9.67455 37.94945 0.02145 -0.01495 -50.92899 9.02037 -1.42243 -17.66762 13.70908 9.81315 16.60731 15.25944 1.62499 6.10830 -0.02536 0.00463 2.97557 -18.38162 19.72986 
76.84529 88.80035 -253.58676 1.13476 4.16643 170.01007 8.19866 15.82916 8.41673 0.00585 0.00897 0.00149 -32.99897 17.52193 40.64899 1.42663 1.41039 -0.67277 -25.46588 -90.00000 0.00000 -52.87520 51.15825 -94.88310 4.03184 13.67262 -2.32865 18.51859 1.98028 9.44702 47.77549 -22.26020 70.11201 33.57793 28.26498 83.36874 -0.03522 11.31611 8.43671 25.08664 -27.54162 21.89783 3.80566 23.90859 -9.38832 38.64997 0.01249 -0.01363 -52.27980 8.79416 -0.72321 -18.10372 13.05527 9.31136 17.22303 16.68084 2.22560 7.26666 -0.02368 0.00654 -1.81835 -25.56026 12.55324 
77.35476 89.13467 -253.38641 1.19546 4.11008 170.08038 7.70489 15.13956 8.36654 0.00582 0.00994 0.00145 -33.36317 18.18826 41.11869 1.39176 1.81001 -0.58743 -25.05750 -90.00000 0.00000 -52.41946 51.17269 -94.89732 4.17588 13.19009 -1.98915 18.01119 2.35746 9.30523 47.54203 -23.13445 70.05634 33.64909 28.87418 84.10545 -0.87722 10.34776 7.93524 24.95026 -26.55325 20.85869 2.89404 22.54695 -9.12848 38.76023 0.00778 -0.00859 -52.06482 8.98897 0.30548 -18.54867 12.30799 8.74425 17.76832 18.20515 2.91853 8.75099 -0.02254 0.01149 5.17252 -5.18824 20.96550 
77.84077 89.46340 -253.24715 1.24985 4.02974 170.14034 7.22864 14.42606 8.28490 0.00554 0.00889 0.00033 -33.73085 18.82417 41.57022 1.35436 2.21725 -0.50911 -24.66521 -90.00000 0.00000 -52.09063 51.18765 -94.74263 4.22209 12.74378 -1.75076 17.77609 2.79953 9.08747 47.13103 -23.82285 70.01471 33.87381 28.41383 84.48274 -0.48174 10.12686 7.84002 24.69480 -25.45814 19.82940 2.21495 20.96850 -8.90149 38.33701 0.00505 -0.00372 -51.43215 9.21921 1.01334 -18.99657 11.45422 8.11827 18.23697 19.84860 3.72500 10.09141 -0.02328 0.01187 1.15213 -10.98591 15.82088 
78.29698 89.78207 -253.13669 1.30513 3.92971 170.18617 6.77848 13.70177 8.17463 0.00564 0.00760 -0.00072 -34.10044 19.40470 42.00513 1.36762 2.62384 -0.42931 -24.36619 -90.00000 0.00000 -51.81599 51.19365 -94.49303 4.35915 12.23706 -1.61814 17.54487 3.24861 8.73012 46.93248 -24.18979 70.00708 34.07663 27.64039 84.82094 0.09822 9.82908 7.82286 24.33023 -24.31647 18.84718 1.78942 19.27220 -8.74103 37.42287 0.00323 0.00042 -50.08661 9.71564 2.10543 -19.12623 9.62674 6.69050 18.30491 22.78281 5.03673 11.27312 -0.02072 0.01247 2.33145 -8.14779 16.85422 
78.71257 90.06870 -253.03436 1.36413 3.82671 170.21931 6.35955 12.98220 8.03640 0.00578 0.00620 -0.00112 -34.47489 19.94603 42.42222 1.41153 2.96850 -0.32504 -24.15279 -90.00000 0.00000 -51.60896 51.22828 -94.13158 4.32819 11.70687 -1.46444 17.49368 3.66872 8.37984 46.75556 -24.32794 69.90730 34.20366 26.87191 85.25175 0.87865 9.87362 7.79985 23.87033 -23.19001 17.93024 1.62400 17.54319 -8.64187 36.04831 0.00196 0.00360 -49.08112 9.77239 2.69629 -19.31883 7.90301 5.32956 18.26527 25.69015 6.44306 12.10664 -0.02033 0.01049 1.37549 -10.34839 13.67500 
79.09922 90.32590 -252.92427 1.42311 3.78187 170.25352 5.97480 12.32464 7.85337 0.00654 0.00531 -0.00139 -34.83874 20.43290 42.82335 1.50743 3.26445 -0.21574 -24.04337 -90.00000 0.00000 -51.43475 51.29146 -93.73528 4.34716 11.33144 -1.40725 17.50647 4.05193 8.07420 46.71645 -24.33410 69.76162 34.26889 26.18794 85.80428 1.47780 9.84962 7.75479 23.32099 -22.08698 17.04881 1.67469 15.85330 -8.57325 34.26309 0.00132 0.00605 -47.52990 9.70231 3.43670 -19.55602 6.32104 4.05905 18.08897 28.45038 7.65310 12.33348 -0.02111 0.00025 1.20667 -11.44216 12.67185 
79.45553 90.55099 -252.81110 1.48646 3.81133 170.31976 5.63608 11.72858 7.61358 0.00675 0.00426 -0.00074 -35.18806 20.90556 43.20594 1.58524 3.47580 -0.01924 -23.96136 -90.00000 0.00000 -51.20789 51.36699 -93.40535 4.29386 10.93252 -1.35579 17.73545 4.39982 7.92148 46.60719 -24.34364 69.44662 34.32100 25.60379 86.47420 2.15426 9.83556 7.58240 22.71917 -21.03815 16.17899 1.87258 14.27226 -8.50859 32.12777 0.00097 0.00761 -45.55867 9.84302 3.89603 -19.80107 4.90681 2.87384 17.77958 30.92127 8.44719 11.58770 -0.02510 -0.00965 -9.47134 -21.26456 -4.20562 
79.79513 90.73765 -252.68504 1.54998 3.91166 170.42957 5.34378 11.19836 7.32489 0.00714 0.00487 0.00021 -35.50896 21.34369 43.54989 1.64957 3.71903 0.23839 -179.23662 -85.93484 -155.23956 -50.91951 51.46569 -93.16058 4.29937 10.58916 -1.23085 18.01433 4.79112 7.82542 46.59916 -24.40102 69.12721 34.40477 25.10380 87.22823 2.80719 9.79639 7.26212 22.10580 -20.07261 15.34477 2.16662 12.85803 -8.46132 29.69154 0.00074 0.00825 -43.28812 9.95672 4.39735 -20.06130 3.75191 1.79257 17.74990 31.21510 7.78379 4.70608 -0.18930 0.04957 11.44741 -2.64746 -6.42397 
80.12990 90.87577 -252.51672 1.60226 4.06224 170.57959 5.07587 10.73717 7.01027 0.00666 0.00640 0.00116 -35.78168 21.74546 43.82843 1.60915 4.04278 0.51885 -170.36472 -85.26517 -146.33937 -50.57679 51.61000 -92.96851 4.31072 10.22688 -1.00074 18.17117 5.25188 7.73678 46.85535 -24.51385 68.90711 34.56124 24.70054 88.01815 3.62235 9.70077 6.77526 21.52089 -19.23200 14.58879 2.50996 11.65334 -8.43563 26.99757 0.00099 0.00785 -40.90386 9.74006 4.66721 -20.35287 2.92640 0.84241 17.88355 30.01170 7.04370 6.69110 -0.09625 -0.03406 3.14753 -20.28932 -18.85657 
80.45118 91.01132 -252.30843 1.63692 4.24256 170.76070 4.83512 10.34146 6.69439 0.00687 0.00719 0.00221 -36.01988 22.14990 44.02003 1.57596 4.36206 0.83543 -161.90840 -84.56982 -137.77092 -50.10344 51.71969 -92.89608 4.35154 10.24923 -0.86961 18.20928 5.70832 7.73884 47.28384 -24.69792 68.67333 34.81166 24.38297 88.83172 4.32521 9.60811 6.28235 20.98027 -18.53300 13.94263 2.87746 10.67060 -8.44105 24.08410 0.00168 0.00673 -38.30177 9.58396 4.95764 -20.65934 2.50066 0.03070 18.03509 27.89533 6.22705 0.63506 -0.15897 0.14924 11.88926 -9.78292 -11.66223 
